<svg width="320" height="620" xmlns="http://www.w3.org/2000/svg" font-family="system-ui, -apple-system, sans-serif">
  <rect width="320" height="620" rx="36" fill="#0D0D1A"/>

  <!-- Status bar -->
  <text x="24" y="28" fill="#FFFFFF" font-size="13" font-weight="600">9:41</text>
  <text x="260" y="28" fill="#FFFFFF" font-size="13">● ▲ ■</text>

  <!-- Header -->
  <text x="20" y="72" fill="#FFFFFF" font-size="24" font-weight="800">History</text>
  <text x="20" y="90" fill="#555577" font-size="13">5 scans</text>

  <!-- History item 1 -->
  <rect x="16" y="106" width="288" height="76" rx="14" fill="#1A1A2E" stroke="#2A2A4A" stroke-width="1"/>
  <rect x="28" y="118" width="52" height="52" rx="10" fill="#252540"/>
  <text x="54" y="150" fill="#FFFFFF" font-size="28" text-anchor="middle">🦁</text>
  <text x="92" y="138" fill="#FFFFFF" font-size="14" font-weight="600">African Lion</text>
  <text x="92" y="156" fill="#7777AA" font-size="12">🐾 animal</text>
  <text x="92" y="172" fill="#444466" font-size="11">Feb 28, 09:38 AM</text>
  <text x="288" y="148" fill="#444466" font-size="22" text-anchor="end">›</text>

  <!-- History item 2 -->
  <rect x="16" y="190" width="288" height="76" rx="14" fill="#1A1A2E" stroke="#2A2A4A" stroke-width="1"/>
  <rect x="28" y="202" width="52" height="52" rx="10" fill="#252540"/>
  <text x="54" y="234" fill="#FFFFFF" font-size="28" text-anchor="middle">🚗</text>
  <text x="92" y="222" fill="#FFFFFF" font-size="14" font-weight="600">Ford Mustang GT</text>
  <text x="92" y="240" fill="#7777AA" font-size="12">🚗 car</text>
  <text x="92" y="256" fill="#444466" font-size="11">Feb 28, 09:22 AM</text>
  <text x="288" y="232" fill="#444466" font-size="22" text-anchor="end">›</text>

  <!-- History item 3 -->
  <rect x="16" y="274" width="288" height="76" rx="14" fill="#1A1A2E" stroke="#2A2A4A" stroke-width="1"/>
  <rect x="28" y="286" width="52" height="52" rx="10" fill="#252540"/>
  <text x="54" y="318" fill="#FFFFFF" font-size="28" text-anchor="middle">🍕</text>
  <text x="92" y="306" fill="#FFFFFF" font-size="14" font-weight="600">Margherita Pizza</text>
  <text x="92" y="324" fill="#7777AA" font-size="12">🍔 food</text>
  <text x="92" y="340" fill="#444466" font-size="11">Feb 28, 08:55 AM</text>
  <text x="288" y="316" fill="#444466" font-size="22" text-anchor="end">›</text>

  <!-- History item 4 -->
  <rect x="16" y="358" width="288" height="76" rx="14" fill="#1A1A2E" stroke="#2A2A4A" stroke-width="1"/>
  <rect x="28" y="370" width="52" height="52" rx="10" fill="#252540"/>
  <text x="54" y="402" fill="#FFFFFF" font-size="28" text-anchor="middle">🍃</text>
  <text x="92" y="390" fill="#FFFFFF" font-size="14" font-weight="600">Monstera Deliciosa</text>
  <text x="92" y="408" fill="#7777AA" font-size="12">🍃 leaf</text>
  <text x="92" y="424" fill="#444466" font-size="11">Feb 27, 07:14 PM</text>
  <text x="288" y="400" fill="#444466" font-size="22" text-anchor="end">›</text>

  <!-- History item 5 -->
  <rect x="16" y="442" width="288" height="76" rx="14" fill="#1A1A2E" stroke="#2A2A4A" stroke-width="1"/>
  <rect x="28" y="454" width="52" height="52" rx="10" fill="#252540"/>
  <text x="54" y="486" fill="#FFFFFF" font-size="28" text-anchor="middle">🏛️</text>
  <text x="92" y="474" fill="#FFFFFF" font-size="14" font-weight="600">Colosseum</text>
  <text x="92" y="492" fill="#7777AA" font-size="12">🏛️ historical place</text>
  <text x="92" y="508" fill="#444466" font-size="11">Feb 27, 03:40 PM</text>
  <text x="288" y="484" fill="#444466" font-size="22" text-anchor="end">›</text>

  <!-- Bottom tab bar -->
  <rect x="0" y="554" width="320" height="66" rx="0" fill="#1A1A2E"/>
  <rect x="0" y="554" width="320" height="1" fill="#2A2A4A"/>
  <text x="80" y="578" fill="#555577" font-size="20" text-anchor="middle">📷</text>
  <text x="80" y="596" fill="#555577" font-size="10" text-anchor="middle">Scan</text>
  <text x="160" y="578" fill="#6C63FF" font-size="20" text-anchor="middle">📋</text>
  <text x="160" y="596" fill="#6C63FF" font-size="10" font-weight="700" text-anchor="middle">History</text>
  <text x="240" y="578" fill="#555577" font-size="20" text-anchor="middle">⚙️</text>
  <text x="240" y="596" fill="#555577" font-size="10" text-anchor="middle">Settings</text>
</svg>
